<?xml version="1.0" standalone="no"?>
<!DOCTYPE svg PUBLIC "-//W3C//DTD SVG 20010904//EN"
 "http://www.w3.org/TR/2001/REC-SVG-20010904/DTD/svg10.dtd">
<svg version="1.0" xmlns="http://www.w3.org/2000/svg"
 width="260.000000pt" height="260.000000pt" viewBox="0 0 260.000000 260.000000"
 preserveAspectRatio="xMidYMid meet">
<metadata>
Created by potrace 1.11, written by Peter Selinger 2001-2013
</metadata>
<g transform="translate(0.000000,260.000000) scale(0.100000,-0.100000)"
fill="#000000" stroke="none">
<path d="M1000 2400 l0 -100 -300 0 -300 0 0 -100 0 -100 -100 0 -100 0 0
-400 0 -400 -100 0 -100 0 0 -500 0 -500 100 0 100 0 0 -100 0 -100 1200 0
1200 0 0 400 0 400 -100 0 -100 0 0 100 0 100 -100 0 -100 0 0 100 0 100 100
0 100 0 0 400 0 400 -300 0 -300 0 0 200 0 200 -400 0 -400 0 0 -100z m720
-140 c0 -153 -1 -160 -20 -160 -19 0 -20 7 -20 140 l0 140 -280 0 -280 0 0
-240 c0 -233 -1 -240 -20 -240 -19 0 -20 7 -20 260 l0 260 320 0 320 0 0 -160z
m-120 -160 l0 -200 -100 0 -100 0 -1 108 c-1 59 -2 146 -3 194 0 78 -2 86 -16
73 -20 -18 -21 -135 -1 -159 8 -9 11 -19 7 -23 -3 -3 -6 -2 -6 4 0 5 -7 10
-15 10 -8 0 -15 -5 -15 -11 0 -6 -4 -5 -9 2 -4 8 -12 14 -16 14 -4 0 -12 -6
-16 -14 -5 -7 -9 -8 -9 -2 0 14 -30 14 -30 0 0 -6 -4 -5 -9 2 -4 8 -12 14 -16
14 -4 0 -12 -6 -16 -14 -7 -10 -9 -10 -9 0 0 7 -3 11 -8 8 -4 -2 -7 39 -6 92
1 53 2 97 3 97 0 0 89 1 196 3 l195 3 0 -201z m-215 96 c0 -41 -2 -73 -5 -71
-5 3 -6 133 -1 143 5 10 6 -8 6 -72z m-385 4 c0 -19 -7 -20 -240 -20 l-240 0
0 -100 0 -100 -100 0 -100 0 0 -240 c0 -233 -1 -240 -20 -240 -19 0 -20 7 -20
260 l0 260 100 0 100 0 0 100 0 100 260 0 c253 0 260 -1 260 -20z m-2 -201
l-3 -103 -85 -1 c-47 0 -92 3 -100 7 -13 5 -16 24 -15 97 1 82 -1 89 -15 76
-20 -18 -21 -135 -1 -159 8 -9 11 -19 7 -23 -3 -3 -6 -2 -6 4 0 5 -7 10 -15
10 -8 0 -15 -5 -15 -11 0 -6 -4 -5 -9 2 -4 8 -12 14 -16 14 -4 0 -12 -6 -16
-14 -5 -7 -9 -8 -9 -2 0 6 -7 11 -15 11 -8 0 -15 -5 -15 -11 0 -6 -4 -5 -9 2
-4 8 -12 14 -16 14 -4 0 -12 -6 -16 -14 -7 -10 -9 -10 -9 0 0 7 -4 11 -8 8 -4
-2 -7 -50 -7 -105 0 -55 -3 -97 -7 -95 -4 3 -8 -1 -8 -8 0 -10 -2 -10 -9 0 -4
8 -12 14 -16 14 -4 0 -12 -6 -16 -14 -7 -10 -9 -10 -9 -1 0 15 -21 13 -32 -2
-5 -6 -8 -6 -8 1 0 6 -7 11 -15 11 -8 0 -15 -5 -15 -11 0 -6 -4 -5 -9 2 -4 8
-12 14 -16 14 -4 0 -12 -6 -16 -14 -7 -10 -9 -10 -9 0 0 7 -3 11 -8 8 -4 -2
-7 39 -7 92 l0 97 90 0 c50 0 95 3 100 7 6 4 10 44 10 95 -1 48 0 90 1 93 1 3
90 6 198 8 l197 3 -3 -102z m-213 -3 c0 -41 -2 -73 -5 -71 -5 3 -6 133 -1 143
5 10 6 -8 6 -72z m1535 -296 l0 -320 -300 0 -300 0 0 -100 0 -100 -200 0 -200
0 0 -100 0 -100 -200 0 -200 0 0 -100 0 -100 -160 0 -160 0 0 -40 0 -40 200 0
201 0 -3 -102 -3 -101 -188 -1 c-104 -1 -194 2 -200 6 -8 5 -12 41 -12 100 l0
93 -88 0 c-49 0 -91 -4 -94 -9 -4 -5 -1 -6 7 -1 9 6 11 4 5 -5 -6 -9 -4 -11 5
-5 8 5 11 4 7 -1 -3 -6 21 -10 62 -9 l67 1 -1 -68 c-1 -46 3 -72 12 -80 7 -6
13 -16 13 -22 0 -7 -4 -6 -9 2 -11 17 -21 17 -32 0 -7 -10 -9 -10 -9 0 0 14
-21 12 -32 -3 -5 -6 -8 -6 -8 1 0 14 -30 14 -30 0 0 -6 -4 -5 -9 2 -11 17 -21
17 -32 0 -7 -10 -9 -10 -9 0 0 7 -3 11 -8 8 -4 -2 -8 39 -8 92 -3 289 -5 317
-14 302 -5 -8 -10 -10 -10 -4 0 6 -7 11 -15 11 -8 0 -15 -5 -15 -11 0 -6 -4
-5 -9 2 -11 17 -21 17 -32 0 -5 -7 -9 -8 -9 -2 0 14 -30 14 -30 0 0 -6 -4 -5
-9 2 -11 17 -21 17 -32 0 -7 -10 -9 -10 -9 0 0 7 -3 11 -8 8 -4 -2 -7 39 -7
92 l0 97 92 0 c50 0 95 4 100 8 4 5 8 50 8 100 l0 92 192 0 c105 0 195 4 200
8 4 5 8 50 8 100 l0 92 192 0 c105 0 195 4 200 8 4 5 8 50 8 100 l0 92 200 0
200 0 0 -97 c0 -53 -3 -94 -7 -92 -5 3 -8 -1 -8 -8 0 -10 -2 -10 -9 0 -4 8
-12 14 -16 14 -4 0 -12 -6 -16 -14 -5 -7 -9 -8 -9 -2 0 14 -30 14 -30 0 0 -6
-4 -5 -9 2 -4 8 -12 14 -16 14 -4 0 -12 -6 -16 -14 -5 -7 -9 -8 -9 -2 0 6 -7
11 -15 11 -8 0 -15 -5 -15 -11 0 -6 -4 -5 -9 2 -4 8 -12 14 -16 14 -4 0 -12
-6 -16 -14 -5 -7 -9 -8 -9 -2 0 14 -30 14 -30 0 0 -6 -4 -5 -9 2 -11 17 -21
17 -32 0 -5 -7 -9 -8 -9 -2 0 6 -7 11 -15 11 -8 0 -15 -5 -15 -11 0 -6 -4 -5
-9 2 -4 8 -12 14 -16 14 -4 0 -12 -6 -16 -14 -7 -10 -9 -10 -9 0 0 7 -4 11 -8
8 -4 -2 -7 -50 -7 -105 0 -55 -3 -97 -7 -95 -4 3 -8 -1 -8 -8 0 -10 -2 -10 -9
0 -4 8 -12 14 -16 14 -4 0 -12 -6 -16 -14 -5 -7 -9 -8 -9 -2 0 14 -30 14 -30
0 0 -6 -4 -5 -9 2 -4 8 -12 14 -16 14 -4 0 -12 -6 -16 -14 -5 -7 -9 -8 -9 -2
0 14 -30 14 -30 0 0 -6 -4 -5 -9 2 -4 8 -12 14 -16 14 -4 0 -12 -6 -16 -14 -5
-7 -9 -8 -9 -2 0 14 -30 14 -30 0 0 -6 -4 -5 -9 2 -4 8 -12 14 -16 14 -4 0
-12 -6 -16 -14 -5 -7 -9 -8 -9 -2 0 14 -30 14 -30 0 0 -6 -4 -5 -9 2 -4 8 -12
14 -16 14 -4 0 -12 -6 -16 -14 -7 -10 -9 -10 -9 0 0 7 -4 11 -8 8 -4 -2 -7
-50 -7 -105 0 -55 -3 -97 -7 -95 -4 3 -8 -1 -8 -8 0 -10 -2 -10 -9 0 -11 17
-21 17 -32 0 -5 -7 -9 -8 -9 -2 0 6 -7 11 -15 11 -8 0 -15 -5 -15 -11 0 -6 -4
-5 -9 2 -11 17 -21 17 -32 0 -5 -7 -9 -8 -9 -2 0 14 -30 14 -30 0 0 -6 -4 -5
-9 2 -11 17 -21 17 -32 0 -5 -7 -9 -8 -9 -2 0 14 -30 14 -30 0 0 -6 -4 -5 -9
2 -11 17 -21 17 -32 0 -5 -7 -9 -8 -9 -2 0 6 -7 11 -15 11 -8 0 -15 -5 -15
-11 0 -6 -4 -5 -9 2 -11 17 -21 17 -32 0 -7 -10 -9 -10 -9 0 0 7 -3 11 -8 8
-4 -2 -7 -49 -7 -103 l0 -98 100 0 100 0 -4 -42 -3 -43 141 0 141 0 0 100 0
100 200 0 200 0 0 100 0 100 200 0 200 0 0 100 0 100 300 0 300 0 0 280 0 280
-280 0 -280 0 0 -100 0 -100 -300 0 -300 0 0 -100 0 -100 -200 0 -200 0 0
-100 0 -100 -200 0 -200 0 0 -100 0 -100 -100 0 -100 0 0 -380 0 -380 100 0
100 0 0 -100 0 -100 340 0 c333 0 340 0 340 -20 0 -20 -7 -20 -360 -20 l-360
0 0 100 0 100 -100 0 -100 0 0 420 0 420 100 0 100 0 0 100 0 100 200 0 200 0
0 100 0 100 200 0 200 0 0 100 0 100 300 0 300 0 0 100 0 100 320 0 320 0 0
-320z m-123 3 l-3 -198 -95 0 -95 0 1 98 c0 54 -2 100 -5 102 -3 2 -5 44 -5
94 1 82 -1 89 -15 76 -20 -18 -21 -135 -1 -159 8 -9 11 -19 7 -23 -3 -3 -6 -2
-6 4 0 5 -7 10 -15 10 -8 0 -15 -5 -15 -11 0 -6 -4 -5 -9 2 -4 8 -12 14 -16
14 -4 0 -12 -6 -16 -14 -5 -7 -9 -8 -9 -2 0 14 -30 14 -30 0 0 -6 -4 -5 -9 2
-4 8 -12 14 -16 14 -4 0 -12 -6 -16 -14 -7 -10 -9 -10 -9 0 0 7 -3 11 -8 8 -4
-2 -7 39 -6 92 1 53 2 97 3 97 0 0 89 1 197 3 l195 3 -4 -198z m-212 93 c0
-41 -2 -73 -5 -71 -5 3 -6 133 -1 143 5 10 6 -8 6 -72z m-65 -536 l0 -40 100
0 100 0 0 -100 0 -100 100 0 100 0 0 -100 0 -100 100 0 100 0 0 -320 0 -320
-320 0 -320 0 0 100 0 100 -40 0 c-33 0 -40 3 -40 20 0 18 7 20 60 20 l60 0 0
-100 0 -100 280 0 280 0 0 280 0 280 -100 0 -100 0 0 100 0 100 -100 0 -100 0
0 100 0 100 -100 0 -100 0 0 60 c0 53 2 60 20 60 17 0 20 -7 20 -40z m-200
-620 l0 -460 -320 0 -320 0 0 360 c0 353 0 360 20 360 20 0 20 -7 20 -340 l0
-340 280 0 280 0 0 440 c0 433 0 440 20 440 20 0 20 -7 20 -460z m280 360 l0
-100 100 0 100 0 0 -100 0 -100 101 0 100 0 -4 -197 -3 -198 -95 0 -94 0 0 95
c1 52 -1 100 -4 105 -3 6 -6 50 -6 100 l0 90 -88 0 c-49 0 -91 -4 -94 -9 -4
-5 -1 -6 7 -1 9 6 11 4 5 -5 -6 -9 -4 -11 5 -5 8 5 11 4 7 -1 -3 -6 21 -10 62
-9 l67 1 -1 -68 c-1 -46 3 -72 12 -80 7 -6 13 -16 13 -22 0 -7 -4 -6 -9 2 -11
17 -21 17 -32 0 -7 -10 -9 -10 -9 0 0 14 -21 12 -32 -3 -5 -6 -8 -6 -8 1 0 6
-7 11 -15 11 -8 0 -15 -5 -15 -11 0 -6 -4 -5 -9 2 -11 17 -21 17 -32 0 -7 -10
-9 -10 -9 0 0 7 -3 11 -8 8 -4 -2 -7 39 -7 92 1 53 -1 102 -4 107 -3 6 -6 50
-6 100 l0 90 -88 0 c-49 0 -91 -4 -94 -9 -4 -5 -1 -6 7 -1 9 6 11 4 5 -5 -6
-9 -4 -11 5 -5 8 5 11 4 7 -1 -3 -6 21 -10 62 -9 l67 1 -1 -68 c-1 -46 3 -72
12 -80 7 -6 13 -16 13 -22 0 -7 -4 -6 -9 2 -11 17 -21 17 -32 0 -7 -10 -9 -10
-9 -1 0 15 -21 13 -32 -2 -5 -6 -8 -6 -8 1 0 6 -7 11 -15 11 -8 0 -15 -5 -15
-11 0 -6 -4 -5 -9 2 -11 17 -21 17 -32 0 -7 -10 -9 -10 -9 0 0 7 -3 11 -7 9
-5 -3 -9 84 -11 194 l-3 199 101 0 100 0 0 -100z m-405 -304 l0 -200 -87 1
c-49 1 -93 2 -99 2 -7 1 -9 65 -5 199 2 108 5 197 5 197 1 0 43 0 94 0 l92 0
0 -199z m390 107 c0 -45 -2 -79 -5 -76 -3 2 -5 37 -5 76 l0 72 -62 0 c-34 0
-64 2 -67 5 -2 3 28 5 67 5 l72 0 0 -82z m-1400 -200 c0 -45 -2 -79 -5 -76 -3
2 -5 37 -5 76 l0 72 -62 0 c-34 0 -64 2 -66 5 -3 3 27 5 66 5 l72 0 0 -82z
m1600 0 c0 -45 -2 -79 -5 -76 -3 2 -5 37 -5 76 l0 72 -62 0 c-34 0 -64 2 -67
5 -2 3 28 5 67 5 l72 0 0 -82z"/>
<path d="M1215 2200 l0 -85 77 0 c50 0 74 3 70 10 -12 18 -9 129 4 145 11 13
3 15 -69 15 l-83 0 1 -85z m136 65 c-4 -5 -7 -39 -6 -75 l1 -65 -61 0 -61 0 2
75 c1 41 2 75 3 75 0 0 30 0 65 0 42 0 62 -3 57 -10z"/>
<path d="M1235 2200 l0 -65 50 0 50 0 0 65 1 65 -51 0 -51 0 1 -65z m90 -1 l1
-55 -41 0 -41 0 2 56 c1 30 2 55 3 56 0 0 18 0 38 -1 l38 -1 0 -55z"/>
<path d="M1255 2200 c1 -43 2 -45 30 -45 28 0 29 2 30 45 1 45 0 46 -30 46
-30 0 -31 -1 -30 -46z m50 -1 c1 -29 -2 -35 -20 -35 -18 0 -21 5 -19 36 2 42
0 39 21 36 12 -2 18 -13 18 -37z"/>
<path d="M1275 2203 c1 -32 19 -34 20 -2 1 14 -4 26 -10 26 -6 0 -11 -11 -10
-24z"/>
<path d="M615 2000 l0 -85 77 0 c50 0 74 3 70 10 -12 18 -9 129 4 145 11 13 3
15 -69 15 l-83 0 1 -85z m136 65 c-4 -5 -7 -39 -6 -75 l1 -65 -61 0 -61 0 2
75 c1 41 2 75 3 75 0 0 30 0 65 0 42 0 62 -3 57 -10z"/>
<path d="M635 2000 l0 -65 50 0 50 0 0 65 1 65 -51 0 -51 0 1 -65z m90 -1 l1
-55 -41 0 -41 0 2 56 c1 30 2 55 3 56 0 0 18 0 38 -1 l38 -1 0 -55z"/>
<path d="M655 2000 c1 -43 2 -45 30 -45 28 0 29 2 30 45 1 45 0 46 -30 46 -30
0 -31 -1 -30 -46z m50 -1 c1 -29 -2 -35 -20 -35 -18 0 -21 5 -19 36 2 42 0 39
21 36 12 -2 18 -13 18 -37z"/>
<path d="M675 2003 c1 -32 19 -34 20 -2 1 14 -4 26 -10 26 -6 0 -11 -11 -10
-24z"/>
<path d="M415 1800 l0 -85 90 0 90 0 0 85 1 85 -91 0 -91 0 1 -85z m170 0 l1
-75 -81 0 -81 0 2 75 c1 41 2 75 3 75 0 1 36 0 78 0 l78 0 0 -75z"/>
<path d="M435 1800 l0 -65 70 0 70 0 0 65 1 65 -71 0 -71 0 1 -65z m130 0 l1
-55 -61 0 -61 0 2 55 c1 30 2 55 3 55 0 1 27 1 58 0 l58 0 0 -55z"/>
<path d="M455 1800 l1 -45 49 0 49 0 1 45 1 45 -51 0 -51 0 1 -45z m90 -1 c1
-34 1 -35 -40 -35 -41 0 -41 1 -39 36 1 19 2 35 3 36 1 0 18 0 38 -1 36 -1 37
-2 38 -36z"/>
<path d="M475 1800 c1 -21 6 -25 30 -25 24 0 29 4 30 25 2 22 -2 26 -30 26
-28 0 -32 -4 -30 -26z m50 -1 c2 -10 -6 -15 -20 -15 -19 0 -25 13 -16 33 4 8
35 -7 36 -18z"/>
<path d="M496 1798 c3 -5 10 -6 15 -3 13 9 11 12 -6 12 -8 0 -12 -4 -9 -9z"/>
<path d="M1215 1600 l0 -85 190 0 190 0 0 85 1 85 -191 0 -191 0 1 -85z m370
0 l1 -75 -181 0 -181 0 2 75 c1 41 2 75 3 75 0 0 81 0 178 0 l178 0 0 -75z"/>
<path d="M1235 1600 l0 -65 170 0 170 0 0 65 1 65 -171 0 -171 0 1 -65z m330
0 l1 -55 -161 0 -161 0 2 55 c1 30 2 55 3 55 0 0 72 0 158 0 l158 0 0 -55z"/>
<path d="M1255 1600 l1 -45 149 0 149 0 1 45 1 45 -151 0 -151 0 1 -45z m290
0 l1 -35 -141 0 -141 0 2 35 c1 19 2 35 3 35 1 0 63 0 138 0 l137 0 1 -35z"/>
<path d="M1275 1600 l1 -25 129 0 129 0 1 25 2 25 -132 0 -132 0 2 -25z m250
0 c2 -13 -17 -15 -120 -15 -104 0 -122 2 -120 15 2 8 4 15 4 15 1 0 53 0 118
0 95 0 117 -3 118 -15z"/>
<path d="M1295 1600 c4 -7 212 -7 219 0 2 3 -46 5 -109 5 -62 0 -112 -2 -110
-5z"/>
<path d="M815 1400 l0 -85 190 0 190 0 0 85 1 85 -191 0 -191 0 1 -85z m370 0
l1 -75 -181 0 -181 0 2 75 c1 41 2 75 3 75 0 0 81 0 178 0 l178 0 0 -75z"/>
<path d="M835 1400 l0 -65 170 0 170 0 0 65 1 65 -171 0 -171 0 1 -65z m330 0
l1 -55 -161 0 -161 0 2 55 c1 30 2 55 3 55 0 0 72 0 158 0 l158 0 0 -55z"/>
<path d="M855 1400 l1 -45 149 0 149 0 1 45 1 45 -151 0 -151 0 1 -45z m290 0
l1 -35 -141 0 -141 0 2 35 c1 19 2 35 3 35 1 0 63 0 138 0 l137 0 1 -35z"/>
<path d="M875 1400 l1 -25 129 0 129 0 1 25 2 25 -132 0 -132 0 2 -25z m250 0
c2 -13 -17 -15 -120 -15 -104 0 -122 2 -120 15 2 8 4 15 4 15 1 0 53 0 118 0
95 0 117 -3 118 -15z"/>
<path d="M895 1400 c4 -7 212 -7 219 0 2 3 -46 5 -109 5 -62 0 -112 -2 -110
-5z"/>
<path d="M415 1200 l0 -85 190 0 190 0 0 85 1 85 -191 0 -191 0 1 -85z m370 0
l1 -75 -181 0 -181 0 2 75 c1 41 2 75 3 75 0 0 81 0 178 0 l178 0 0 -75z"/>
<path d="M435 1200 l0 -65 170 0 170 0 0 65 1 65 -171 0 -171 0 1 -65z m330 0
l1 -55 -161 0 -161 0 2 55 c1 30 2 55 3 55 0 0 72 0 158 0 l158 0 0 -55z"/>
<path d="M455 1200 l1 -45 149 0 149 0 1 45 1 45 -151 0 -151 0 1 -45z m290 0
l1 -35 -141 0 -141 0 2 35 c1 19 2 35 3 35 1 0 63 0 138 0 l137 0 1 -35z"/>
<path d="M475 1200 l1 -25 129 0 129 0 1 25 2 25 -132 0 -132 0 2 -25z m250 0
c2 -13 -17 -15 -120 -15 -104 0 -122 2 -120 15 2 8 4 15 4 15 1 0 53 0 118 0
95 0 117 -3 118 -15z"/>
<path d="M495 1200 c4 -7 212 -7 219 0 2 3 -46 5 -109 5 -62 0 -112 -2 -110
-5z"/>
<path d="M215 1000 l0 -85 90 0 90 0 0 85 1 85 -91 0 -91 0 1 -85z m170 0 l1
-75 -81 0 -81 0 2 75 c1 41 2 75 3 75 0 1 36 0 78 0 l78 0 0 -75z"/>
<path d="M235 1000 l0 -65 70 0 70 0 0 65 1 65 -71 0 -71 0 1 -65z m130 0 l1
-55 -61 0 -61 0 2 55 c1 30 2 55 3 55 0 1 27 1 58 0 l58 0 0 -55z"/>
<path d="M255 1000 l1 -45 49 0 49 0 1 45 1 45 -51 0 -51 0 1 -45z m90 -1 c1
-34 1 -35 -40 -35 -41 0 -41 1 -39 36 1 19 2 35 3 36 1 0 18 0 38 -1 36 -1 37
-2 38 -36z"/>
<path d="M275 1000 c1 -21 6 -25 30 -25 24 0 29 4 30 25 2 22 -2 26 -30 26
-28 0 -32 -4 -30 -26z m50 -1 c2 -10 -6 -15 -20 -15 -19 0 -25 13 -16 33 4 8
35 -7 36 -18z"/>
<path d="M296 998 c3 -5 10 -6 15 -3 13 9 11 12 -6 12 -8 0 -12 -4 -9 -9z"/>
<path d="M415 592 l0 -77 77 0 c50 0 74 3 70 10 -4 5 -7 37 -7 70 l0 60 -60 0
c-33 0 -65 3 -70 7 -7 4 -10 -20 -10 -70z m130 -7 l0 -60 -60 0 -60 0 0 60 0
60 60 0 60 0 0 -60z"/>
<path d="M436 631 c-1 -4 -2 -26 -2 -51 l1 -45 50 0 50 0 0 50 0 49 -48 1
c-27 1 -49 -1 -51 -4z m90 -46 l0 -41 -41 0 -41 0 0 41 0 41 41 0 41 0 0 -41z"/>
<path d="M456 611 c-1 -3 -2 -17 -2 -31 1 -21 6 -25 31 -25 27 0 30 3 30 29 0
26 -4 30 -28 31 -15 1 -29 -1 -31 -4z m50 -26 c0 -15 -6 -21 -21 -21 -15 0
-21 6 -21 21 0 15 6 21 21 21 15 0 21 -6 21 -21z"/>
<path d="M476 591 c-4 -5 -2 -12 3 -15 5 -4 12 -2 15 3 4 5 2 12 -3 15 -5 4
-12 2 -15 -3z"/>
<path d="M1815 1800 l0 -85 77 0 c50 0 74 3 70 10 -12 18 -9 129 4 145 11 13
3 15 -69 15 l-83 0 1 -85z m136 65 c-4 -5 -7 -39 -6 -75 l1 -65 -61 0 -61 0 2
75 c1 41 2 75 3 75 0 0 30 0 65 0 42 0 62 -3 57 -10z"/>
<path d="M1835 1800 l0 -65 50 0 50 0 0 65 1 65 -51 0 -51 0 1 -65z m90 -1 l1
-55 -41 0 -41 0 2 56 c1 30 2 55 3 56 0 0 18 0 38 -1 l38 -1 0 -55z"/>
<path d="M1855 1800 c1 -43 2 -45 30 -45 28 0 29 2 30 45 1 45 0 46 -30 46
-30 0 -31 -1 -30 -46z m50 -1 c1 -29 -2 -35 -20 -35 -18 0 -21 5 -19 36 2 42
0 39 21 36 12 -2 18 -13 18 -37z"/>
<path d="M1875 1803 c1 -32 19 -34 20 -2 1 14 -4 26 -10 26 -6 0 -11 -11 -10
-24z"/>
<path d="M2016 1690 c-1 -3 -2 -43 -2 -90 l1 -85 85 0 85 -1 0 91 0 90 -83 0
c-46 0 -85 -2 -86 -5z m159 -85 l0 -80 -75 0 -75 -1 0 81 0 81 75 -1 75 0 0
-80z"/>
<path d="M2036 1670 c-1 -3 -2 -34 -2 -70 l1 -65 65 0 65 -1 0 71 0 70 -63 0
c-35 0 -65 -2 -66 -5z m119 -65 l0 -60 -55 0 -55 -1 0 61 0 61 55 -1 55 0 0
-60z"/>
<path d="M2056 1650 c-1 -3 -2 -25 -2 -50 l1 -44 45 -1 45 -1 0 51 0 51 -43 0
c-24 0 -45 -3 -46 -6z m79 -45 c0 -38 -1 -39 -35 -40 -35 -1 -36 -1 -36 40 0
41 1 41 36 40 34 -1 35 -2 35 -40z"/>
<path d="M2076 1631 c-1 -4 -2 -17 -2 -30 1 -19 7 -25 26 -26 22 -2 26 2 26
30 0 26 -4 31 -24 31 -13 0 -24 -2 -26 -5z m39 -26 c0 -10 -7 -19 -15 -20 -11
-2 -16 5 -16 20 0 15 5 22 16 20 8 -1 15 -10 15 -20z"/>
<path d="M2095 1611 c-3 -5 -2 -12 3 -15 5 -3 9 1 9 9 0 17 -3 19 -12 6z"/>
<path d="M1815 792 l0 -77 77 0 c50 0 74 3 70 10 -4 5 -7 37 -7 70 l0 60 -60
0 c-33 0 -65 3 -70 7 -7 4 -10 -20 -10 -70z m130 -7 l0 -60 -60 0 -60 0 0 60
0 60 60 0 60 0 0 -60z"/>
<path d="M1836 831 c-1 -4 -2 -26 -2 -51 l1 -45 50 0 50 0 0 50 0 49 -48 1
c-27 1 -49 -1 -51 -4z m90 -46 l0 -41 -41 0 -41 0 0 41 0 41 41 0 41 0 0 -41z"/>
<path d="M1856 811 c-1 -3 -2 -17 -2 -31 1 -21 6 -25 31 -25 27 0 30 3 30 29
0 26 -4 30 -28 31 -15 1 -29 -1 -31 -4z m50 -26 c0 -15 -6 -21 -21 -21 -15 0
-21 6 -21 21 0 15 6 21 21 21 15 0 21 -6 21 -21z"/>
<path d="M1876 791 c-4 -5 -2 -12 3 -15 5 -4 12 -2 15 3 4 5 2 12 -3 15 -5 4
-12 2 -15 -3z"/>
<path d="M2015 592 l0 -77 77 0 c50 0 74 3 70 10 -4 5 -7 37 -7 70 l0 60 -60
0 c-33 0 -65 3 -70 7 -7 4 -10 -20 -10 -70z m130 -7 l0 -60 -60 0 -60 0 0 60
0 60 60 0 60 0 0 -60z"/>
<path d="M2036 631 c-1 -4 -2 -26 -2 -51 l1 -45 50 0 50 0 0 50 0 49 -48 1
c-27 1 -49 -1 -51 -4z m90 -46 l0 -41 -41 0 -41 0 0 41 0 41 41 0 41 0 0 -41z"/>
<path d="M2056 611 c-1 -3 -2 -17 -2 -31 1 -21 6 -25 31 -25 27 0 30 3 30 29
0 26 -4 30 -28 31 -15 1 -29 -1 -31 -4z m50 -26 c0 -15 -6 -21 -21 -21 -15 0
-21 6 -21 21 0 15 6 21 21 21 15 0 21 -6 21 -21z"/>
<path d="M2076 591 c-4 -5 -2 -12 3 -15 5 -4 12 -2 15 3 4 5 2 12 -3 15 -5 4
-12 2 -15 -3z"/>
<path d="M2216 490 c-1 -3 -2 -43 -2 -90 l1 -85 85 0 85 -1 0 91 0 90 -83 0
c-46 0 -85 -2 -86 -5z m159 -85 l0 -80 -75 0 -75 -1 0 81 0 81 75 -1 75 0 0
-80z"/>
<path d="M2236 470 c-1 -3 -2 -34 -2 -70 l1 -65 65 0 65 -1 0 71 0 70 -63 0
c-35 0 -65 -2 -66 -5z m119 -65 l0 -60 -55 0 -55 -1 0 61 0 61 55 -1 55 0 0
-60z"/>
<path d="M2256 450 c-1 -3 -2 -25 -2 -50 l1 -44 45 -1 45 -1 0 51 0 51 -43 0
c-24 0 -45 -3 -46 -6z m79 -45 c0 -38 -1 -39 -35 -40 -35 -1 -36 -1 -36 40 0
41 1 41 36 40 34 -1 35 -2 35 -40z"/>
<path d="M2276 431 c-1 -4 -2 -17 -2 -30 1 -19 7 -25 26 -26 22 -2 26 2 26 30
0 26 -4 31 -24 31 -13 0 -24 -2 -26 -5z m39 -26 c0 -10 -7 -19 -15 -20 -11 -2
-16 5 -16 20 0 15 5 22 16 20 8 -1 15 -10 15 -20z"/>
<path d="M2295 411 c-3 -5 -2 -12 3 -15 5 -3 9 1 9 9 0 17 -3 19 -12 6z"/>
<path d="M1415 795 l0 -91 85 1 85 0 0 90 0 90 -85 0 -85 1 0 -91z m160 0 l0
-81 -75 1 -75 0 -1 75 c0 41 1 77 2 80 1 3 35 5 76 5 l73 0 0 -80z"/>
<path d="M1435 795 l0 -71 65 1 65 0 0 70 0 70 -65 0 -65 1 0 -71z m120 0 l0
-61 -55 1 -55 0 -1 55 c0 30 1 57 2 60 1 3 26 5 56 5 l53 0 0 -60z"/>
<path d="M1455 795 l0 -51 45 1 45 1 0 49 0 49 -45 1 -45 1 0 -51z m81 0 c0
-41 -1 -41 -36 -40 -33 1 -35 3 -36 35 -1 46 -1 46 38 46 33 0 34 -1 34 -41z"/>
<path d="M1474 795 c0 -28 4 -32 26 -30 21 1 25 6 25 30 0 24 -4 29 -25 30
-22 2 -26 -2 -26 -30z m42 0 c0 -15 -5 -22 -15 -20 -25 3 -23 42 2 42 7 0 13
-10 13 -22z"/>
<path d="M1493 795 c0 -8 4 -12 9 -9 5 3 6 10 3 15 -9 13 -12 11 -12 -6z"/>
</g>
</svg>
